<?xml version="1.0" encoding="UTF-8"?>
<svg id="_Слой_1" data-name="Слой 1" xmlns="http://www.w3.org/2000/svg" viewBox="0 0 224 82">
  <defs>
    <style>
      .cls-1 {
        isolation: isolate;
        opacity: .2;
      }

      .cls-1, .cls-2 {
        fill: #fa7275;
      }
    </style>
  </defs>
  <rect class="cls-1" x="0" y="0" width="74.83" height="74.83" rx="37.42" ry="37.42"/>
  <path class="cls-2" d="M57.68,31.18h0c13.78,0,24.94,11.17,24.94,24.94h0c0,13.78-11.17,24.94-24.94,24.94h0c-13.78,0-24.94-11.17-24.94-24.94h0c0-13.78,11.17-24.94,24.94-24.94Z"/>
  <g>
    <path class="cls-2" d="M113.38,55.74c-2.25,0-4.21-.35-5.87-1.05s-2.96-1.72-3.9-3.07c-.94-1.34-1.45-2.97-1.52-4.88h5.14c.09,1.02.41,1.86.96,2.54.55.68,1.27,1.18,2.17,1.51s1.89.5,2.99.5,2.16-.18,3.04-.53,1.57-.84,2.06-1.47c.49-.63.74-1.36.74-2.2,0-.75-.22-1.38-.65-1.88-.44-.49-1.05-.91-1.84-1.26-.79-.34-1.71-.65-2.76-.91l-3.3-.86c-2.44-.62-4.33-1.57-5.69-2.83-1.36-1.26-2.04-2.92-2.04-4.98,0-1.72.46-3.22,1.39-4.51.92-1.29,2.19-2.29,3.79-3,1.6-.71,3.42-1.06,5.45-1.06s3.89.36,5.45,1.07c1.56.72,2.78,1.71,3.66,2.97.88,1.26,1.34,2.7,1.38,4.32h-5.06c-.13-1.25-.69-2.22-1.67-2.9-.98-.68-2.26-1.03-3.84-1.03-1.09,0-2.04.17-2.82.5-.79.33-1.39.78-1.82,1.36-.42.57-.63,1.23-.63,1.97,0,.81.25,1.47.75,1.99.5.52,1.13.94,1.89,1.25s1.53.57,2.31.76l2.71.7c1.08.26,2.13.61,3.14,1.04s1.93.97,2.74,1.63c.81.66,1.46,1.46,1.94,2.39.48.94.72,2.04.72,3.3,0,1.71-.44,3.21-1.31,4.5-.87,1.3-2.13,2.3-3.77,3.03s-3.62,1.08-5.94,1.08Z"/>
    <path class="cls-2" d="M139.04,33.46v3.98h-12.4v-3.98h12.4ZM129.75,28.26h5.08v20.88c0,.79.17,1.38.51,1.75s.89.56,1.66.56c.23,0,.54-.03.93-.09s.69-.11.93-.17l.8,3.93c-.56.17-1.13.29-1.72.36-.59.07-1.15.11-1.68.11-2.1,0-3.7-.52-4.82-1.56-1.12-1.04-1.68-2.53-1.68-4.45v-21.31Z"/>
    <path class="cls-2" d="M152.15,55.74c-2.12,0-3.96-.47-5.53-1.42-1.56-.94-2.77-2.26-3.62-3.95-.85-1.69-1.28-3.65-1.28-5.89s.43-4.25,1.28-5.95,2.06-3.02,3.62-3.96,3.41-1.41,5.53-1.41,3.98.47,5.55,1.41,2.77,2.26,3.62,3.96,1.28,3.68,1.28,5.95-.43,4.2-1.28,5.89c-.85,1.69-2.06,3-3.62,3.95-1.56.94-3.41,1.42-5.55,1.42ZM152.15,51.62c1.18,0,2.17-.32,2.96-.96.79-.64,1.37-1.5,1.76-2.58.38-1.08.58-2.29.58-3.61s-.19-2.55-.58-3.63c-.38-1.08-.97-1.94-1.76-2.58-.79-.64-1.77-.96-2.96-.96s-2.17.32-2.94.96c-.77.64-1.35,1.49-1.74,2.57s-.58,2.29-.58,3.64.19,2.53.58,3.61c.38,1.08.96,1.94,1.74,2.58.77.64,1.75.96,2.94.96Z"/>
    <path class="cls-2" d="M167.03,55.29v-21.84h4.92v3.65h.23c.39-1.26,1.07-2.24,2.05-2.92s2.09-1.03,3.34-1.03c.29,0,.61.01.96.04.35.03.65.06.9.1v4.67c-.21-.06-.55-.12-1.02-.18-.47-.05-.93-.08-1.39-.08-.94,0-1.78.2-2.53.61-.75.4-1.33.96-1.76,1.67-.42.71-.63,1.53-.63,2.45v12.85h-5.08Z"/>
    <path class="cls-2" d="M191.5,55.74c-2.12,0-3.96-.47-5.53-1.42-1.56-.94-2.77-2.26-3.62-3.95-.85-1.69-1.28-3.65-1.28-5.89s.43-4.25,1.28-5.95,2.06-3.02,3.62-3.96,3.41-1.41,5.53-1.41,3.98.47,5.55,1.41,2.77,2.26,3.62,3.96,1.28,3.68,1.28,5.95-.43,4.2-1.28,5.89c-.85,1.69-2.06,3-3.62,3.95-1.56.94-3.41,1.42-5.55,1.42ZM191.5,51.62c1.18,0,2.17-.32,2.96-.96.79-.64,1.37-1.5,1.76-2.58.38-1.08.58-2.29.58-3.61s-.19-2.55-.58-3.63c-.38-1.08-.97-1.94-1.76-2.58-.79-.64-1.77-.96-2.96-.96s-2.17.32-2.94.96c-.77.64-1.35,1.49-1.74,2.57s-.58,2.29-.58,3.64.19,2.53.58,3.61c.38,1.08.96,1.94,1.74,2.58.77.64,1.75.96,2.94.96Z"/>
  </g>
</svg>