<svg width="199" height="82" viewBox="0 0 199 82" fill="none" xmlns="http://www.w3.org/2000/svg">
<rect width="199" height="82" fill="#1E1E1E"/>
<path d="M113.002 53.7349C111.256 53.7349 109.684 53.4356 108.287 52.8369C106.891 52.2133 105.793 51.3403 104.995 50.2178C104.197 49.0953 103.797 47.7858 103.797 46.2891H108.362C108.462 47.4116 108.899 48.3345 109.672 49.0579C110.47 49.7813 111.58 50.143 113.002 50.143C114.474 50.143 115.621 49.7938 116.444 49.0953C117.267 48.3719 117.679 47.449 117.679 46.3265C117.679 45.4535 117.417 44.7426 116.893 44.1938C116.394 43.645 115.758 43.221 114.985 42.9217C114.237 42.6223 113.189 42.2981 111.842 41.9488C110.146 41.4998 108.761 41.0508 107.689 40.6019C106.641 40.1279 105.743 39.4045 104.995 38.4317C104.246 37.4589 103.872 36.1618 103.872 34.5404C103.872 33.0438 104.246 31.7342 104.995 30.6117C105.743 29.4893 106.791 28.6287 108.138 28.03C109.485 27.4314 111.044 27.132 112.815 27.132C115.334 27.132 117.392 27.7681 118.988 29.0403C120.61 30.2875 121.508 32.0086 121.682 34.2037H116.968C116.893 33.2558 116.444 32.4451 115.621 31.7716C114.798 31.0981 113.713 30.7614 112.366 30.7614C111.144 30.7614 110.146 31.0732 109.372 31.6968C108.599 32.3204 108.213 33.2184 108.213 34.3908C108.213 35.189 108.45 35.85 108.923 36.3738C109.422 36.8727 110.046 37.2718 110.794 37.5711C111.543 37.8705 112.565 38.1947 113.862 38.544C115.584 39.0179 116.98 39.4918 118.053 39.9658C119.151 40.4397 120.073 41.1756 120.822 42.1733C121.595 43.1461 121.982 44.4557 121.982 46.102C121.982 47.4241 121.62 48.6713 120.897 49.8436C120.198 51.016 119.163 51.9639 117.791 52.6873C116.444 53.3857 114.848 53.7349 113.002 53.7349ZM131.991 36.3364V47.7483C131.991 48.5216 132.166 49.0828 132.515 49.4321C132.889 49.7563 133.513 49.9185 134.386 49.9185H137.005V53.473H133.637C131.717 53.473 130.245 53.024 129.222 52.126C128.2 51.228 127.688 49.7688 127.688 47.7483V36.3364H125.256V32.8567H127.688V27.7307H131.991V32.8567H137.005V36.3364H131.991ZM149.879 53.8098C147.933 53.8098 146.174 53.3732 144.603 52.5002C143.032 51.6022 141.797 50.355 140.899 48.7586C140.001 47.1372 139.552 45.2664 139.552 43.1461C139.552 41.0508 140.013 39.1925 140.936 37.5711C141.859 35.9498 143.119 34.7026 144.715 33.8295C146.312 32.9565 148.095 32.52 150.066 32.52C152.036 32.52 153.82 32.9565 155.416 33.8295C157.013 34.7026 158.272 35.9498 159.195 37.5711C160.118 39.1925 160.58 41.0508 160.58 43.1461C160.58 45.2415 160.106 47.0998 159.158 48.7212C158.21 50.3425 156.913 51.6022 155.267 52.5002C153.645 53.3732 151.849 53.8098 149.879 53.8098ZM149.879 50.1056C150.976 50.1056 151.999 49.8436 152.947 49.3198C153.92 48.796 154.705 48.0102 155.304 46.9626C155.903 45.9149 156.202 44.6428 156.202 43.1461C156.202 41.6495 155.915 40.3898 155.341 39.3671C154.768 38.3195 154.007 37.5337 153.059 37.0099C152.111 36.4861 151.088 36.2242 149.991 36.2242C148.893 36.2242 147.871 36.4861 146.923 37.0099C146 37.5337 145.264 38.3195 144.715 39.3671C144.166 40.3898 143.892 41.6495 143.892 43.1461C143.892 45.3662 144.453 47.0873 145.576 48.3096C146.723 49.5069 148.158 50.1056 149.879 50.1056ZM169.062 35.85C169.685 34.8023 170.509 33.9917 171.531 33.418C172.579 32.8193 173.814 32.52 175.235 32.52V36.9351H174.15C172.479 36.9351 171.207 37.3591 170.334 38.2072C169.486 39.0553 169.062 40.527 169.062 42.6223V53.473H164.796V32.8567H169.062V35.85ZM188.099 53.8098C186.153 53.8098 184.394 53.3732 182.823 52.5002C181.252 51.6022 180.017 50.355 179.119 48.7586C178.221 47.1372 177.772 45.2664 177.772 43.1461C177.772 41.0508 178.233 39.1925 179.156 37.5711C180.079 35.9498 181.339 34.7026 182.935 33.8295C184.532 32.9565 186.315 32.52 188.286 32.52C190.256 32.52 192.04 32.9565 193.636 33.8295C195.233 34.7026 196.492 35.9498 197.415 37.5711C198.338 39.1925 198.8 41.0508 198.8 43.1461C198.8 45.2415 198.326 47.0998 197.378 48.7212C196.43 50.3425 195.133 51.6022 193.487 52.5002C191.865 53.3732 190.069 53.8098 188.099 53.8098ZM188.099 50.1056C189.196 50.1056 190.219 49.8436 191.167 49.3198C192.14 48.796 192.925 48.0102 193.524 46.9626C194.123 45.9149 194.422 44.6428 194.422 43.1461C194.422 41.6495 194.135 40.3898 193.561 39.3671C192.988 38.3195 192.227 37.5337 191.279 37.0099C190.331 36.4861 189.308 36.2242 188.211 36.2242C187.113 36.2242 186.091 36.4861 185.143 37.0099C184.22 37.5337 183.484 38.3195 182.935 39.3671C182.386 40.3898 182.112 41.6495 182.112 43.1461C182.112 45.3662 182.673 47.0873 183.796 48.3096C184.943 49.5069 186.378 50.1056 188.099 50.1056Z" fill="white"/>
<rect opacity="0.2" width="74.8323" height="74.8323" rx="37.4161" fill="white"/>
<rect x="32.7391" y="31.1801" width="49.8882" height="49.8882" rx="24.9441" fill="white"/>
</svg>
